name ./resultDataOpenSim/trcMotMarkerGrf/sub10/grf-02-02.mot
datacolumns 19
datarows 10
range 0.48800000 0.52400000
endheader

                time	     ground_force_vx	     ground_force_vy	     ground_force_vz	     ground_force_px	     ground_force_py	     ground_force_pz	   l_ground_force_vx	   l_ground_force_vy	   l_ground_force_vz	   l_ground_force_px	   l_ground_force_py	   l_ground_force_pz	     ground_torque_x	     ground_torque_y	     ground_torque_z	   l_ground_torque_x	   l_ground_torque_y	   l_ground_torque_z	
          0.48800000	         34.97012328	        468.01892256	        -23.41495016	         -0.82449773	          0.00000000	         -0.03470477	          0.00000000	          0.00000000	          0.00000000	          0.00000000	          0.00000000	          0.00000000	          0.00000000	          4.24436729	          0.00000000	          0.00000000	          0.00000000	          0.00000000	
          0.49200000	         36.31263859	        469.82439541	        -24.46558717	         -0.82161181	          0.00000000	         -0.03464711	          0.00000000	          0.00000000	          0.00000000	          0.00000000	          0.00000000	          0.00000000	          0.00000000	          4.19159991	          0.00000000	          0.00000000	          0.00000000	          0.00000000	
          0.49600000	         37.81790224	        472.12686238	        -26.13070418	         -0.81861781	          0.00000000	         -0.03453233	          0.00000000	          0.00000000	          0.00000000	          0.00000000	          0.00000000	          0.00000000	          0.00000000	          4.09956440	          0.00000000	          0.00000000	          0.00000000	          0.00000000	
          0.50000000	         39.42220843	        474.95499565	        -28.20150050	         -0.81551643	          0.00000000	         -0.03437195	          0.00000000	          0.00000000	          0.00000000	          0.00000000	          0.00000000	          0.00000000	          0.00000000	          3.97971527	          0.00000000	          0.00000000	          0.00000000	          0.00000000	
          0.50400000	         41.03066675	        478.37232265	        -30.40020241	         -0.81231100	          0.00000000	         -0.03418744	          0.00000000	          0.00000000	          0.00000000	          0.00000000	          0.00000000	          0.00000000	          0.00000000	          3.84849211	          0.00000000	          0.00000000	          0.00000000	          0.00000000	
          0.50800000	         42.54239131	        482.45438988	        -32.44168854	         -0.80902186	          0.00000000	         -0.03400431	          0.00000000	          0.00000000	          0.00000000	          0.00000000	          0.00000000	          0.00000000	          0.00000000	          3.72404406	          0.00000000	          0.00000000	          0.00000000	          0.00000000	
          0.51200000	         43.87540940	        487.26155055	        -34.09083750	         -0.80566240	          0.00000000	         -0.03384549	          0.00000000	          0.00000000	          0.00000000	          0.00000000	          0.00000000	          0.00000000	          0.00000000	          3.62258615	          0.00000000	          0.00000000	          0.00000000	          0.00000000	
          0.51600000	         44.98390026	        492.83897442	        -35.20684814	         -0.80225150	          0.00000000	         -0.03372877	          0.00000000	          0.00000000	          0.00000000	          0.00000000	          0.00000000	          0.00000000	          0.00000000	          3.55519363	          0.00000000	          0.00000000	          0.00000000	          0.00000000	
          0.52000000	         45.86946489	        499.23899733	        -35.76678351	         -0.79881525	          0.00000000	         -0.03366831	          0.00000000	          0.00000000	          0.00000000	          0.00000000	          0.00000000	          0.00000000	          0.00000000	          3.52571149	          0.00000000	          0.00000000	          0.00000000	          0.00000000	
          0.52400000	         46.58501176	        506.53557130	        -35.86054629	         -0.79539978	          0.00000000	         -0.03367116	          0.00000000	          0.00000000	          0.00000000	          0.00000000	          0.00000000	          0.00000000	          0.00000000	          3.53018736	          0.00000000	          0.00000000	          0.00000000	          0.00000000	
